<svg width="1088" height="1088" viewBox="0 0 1088 1088" fill="none" xmlns="http://www.w3.org/2000/svg">
<path d="M544 0.4375C244.283 0.4375 0.4375 244.283 0.4375 544C0.4375 843.717 244.283 1087.56 544 1087.56C843.717 1087.56 1087.56 843.717 1087.56 544C1087.56 244.283 843.717 0.4375 544 0.4375ZM549.227 251.312C586.44 251.312 622.818 262.348 653.761 283.023C684.703 303.697 708.819 333.083 723.06 367.464C737.301 401.846 741.028 439.677 733.767 476.176C726.507 512.675 708.587 546.201 682.273 572.515C655.959 598.829 622.433 616.75 585.934 624.01C549.435 631.27 511.603 627.544 477.222 613.302C442.841 599.061 413.455 574.945 392.78 544.003C372.105 513.061 361.07 476.683 361.07 439.469C361.07 389.567 380.894 341.708 416.18 306.422C451.466 271.136 499.324 251.313 549.227 251.312V251.312ZM544 1003.94C480.562 1003.96 417.807 990.833 359.701 965.374C301.595 939.915 249.401 902.681 206.416 856.026C229.518 736.39 437.012 711.25 544 711.25C650.988 711.25 858.482 736.39 881.584 856C838.604 902.664 786.412 939.905 728.305 965.368C670.198 990.832 607.441 1003.97 544 1003.94V1003.94Z" fill="#3634A0"/>
</svg>
